<?xml version="1.0" encoding="UTF-8"?>
<svg version="1.1" xmlns="http://www.w3.org/2000/svg" width="512" height="512">
<path d="M0 0 C0.09347787 28.77246561 0.16399624 57.54490843 0.20724869 86.31749535 C0.22786613 99.67737692 0.25597128 113.03715274 0.30175781 126.39697266 C0.34165038 138.04258209 0.36743876 149.68812314 0.37635398 161.333799 C0.38156456 167.4990203 0.39379473 173.664046 0.42292023 179.82920456 C0.4501273 185.63547661 0.45843417 191.44147299 0.45243073 197.24780273 C0.45352858 199.37541834 0.46145067 201.50304343 0.4768219 203.63060379 C0.57263199 217.57940003 0.25462058 229.4077737 -10 240 C-17.72056211 246.36632539 -26.70226283 250.60429203 -35.62109375 254.98828125 C-37.1310854 255.73825689 -38.64068555 256.48902122 -40.1499176 257.24052429 C-44.10600156 259.20817034 -48.06661055 261.16651838 -52.02850342 263.12243652 C-58.32172634 266.23133871 -64.60799121 269.35431626 -70.89458084 272.47660446 C-72.42206132 273.23511989 -73.9497081 273.99330054 -75.47751999 274.75114822 C-84.43548516 279.19561865 -93.3522354 283.69486683 -102.1749115 288.40376282 C-114.49071624 294.95596084 -127.048204 301.0500385 -139.5390625 307.25927734 C-156.04152607 315.45244371 -156.04152607 315.45244371 -172.390625 323.9453125 C-180.15222585 328.07392551 -187.99263137 332.0373909 -195.859375 335.9609375 C-196.4646553 336.26285759 -197.06993561 336.56477768 -197.69355774 336.87584686 C-202.04427838 339.04510083 -206.39696031 341.21040437 -210.75 343.375 C-215.15220084 345.56418895 -219.55367796 347.75481131 -223.95349884 349.94878006 C-225.68689558 350.81228525 -227.42152556 351.67331345 -229.15618896 352.53427124 C-233.54665625 354.72265952 -237.91051439 356.90003803 -242.14160156 359.38525391 C-245 361 -245 361 -247 361 C-247 281.8 -247 202.6 -247 121 C-215.49296043 105.24648021 -215.49296043 105.24648021 -203.44995117 99.55517578 C-196.53975504 96.27462592 -189.69942082 92.86136525 -182.86328125 89.4296875 C-181.86905151 88.93080521 -180.87482178 88.43192291 -179.85046387 87.91792297 C-174.7811036 85.37263716 -169.71482925 82.82139256 -164.65185547 80.26342773 C-162.77185669 79.31745258 -160.89181307 78.37156652 -159.01171875 77.42578125 C-158.1326033 76.97947357 -157.25348785 76.53316589 -156.34773254 76.07333374 C-155.13666084 75.46529404 -155.13666084 75.46529404 -153.90112305 74.8449707 C-153.19328171 74.48732132 -152.48544037 74.12967194 -151.75614929 73.76118469 C-150 73 -150 73 -148 73 C-147.99413376 73.64844376 -147.98826752 74.29688751 -147.98222351 74.96498108 C-147.91815886 81.73011174 -147.83370512 88.49477245 -147.73754883 95.25952148 C-147.70434871 97.78224481 -147.67630158 100.30504154 -147.65356445 102.82788086 C-147.61992904 106.45979006 -147.56760633 110.09102957 -147.51171875 113.72265625 C-147.50532883 114.84583755 -147.4989389 115.96901886 -147.49235535 117.12623596 C-147.35734463 124.36011064 -146.8688576 129.79362975 -141.875 135.375 C-137.94969979 137.59364794 -134.49146532 138.19045083 -130 138 C-124.72182343 136.30699997 -122.66992209 133.76259087 -120 129 C-119.39046913 125.53588472 -119.39046913 125.53588472 -119.45410156 121.80126953 C-119.43859505 120.76120003 -119.43859505 120.76120003 -119.42277527 119.70011902 C-119.39347527 117.42744286 -119.39185092 115.15566222 -119.390625 112.8828125 C-119.37563457 111.29953323 -119.3589056 109.71626955 -119.34051514 108.13302612 C-119.29692575 103.98037984 -119.27686139 99.82794448 -119.26177979 95.67510986 C-119.24217818 91.43171765 -119.20021167 87.18855221 -119.16015625 82.9453125 C-119.08494538 74.63026781 -119.03459895 66.3153124 -119 58 C-108.18544537 52.58102339 -97.36974288 47.164345 -86.55265713 41.75042248 C-81.52731921 39.2351687 -76.50234756 36.71918942 -71.47827148 34.20141602 C-29.84874385 13.34032841 -29.84874385 13.34032841 -12.09255981 5.0038147 C-9.89151548 3.94795926 -7.72099671 2.84071152 -5.54858398 1.72729492 C-2 0 -2 0 0 0 Z " fill="#000000" transform="translate(512,150)"/>
<path d="M0 0 C4.61596438 1.48766255 8.84576979 3.31828356 13.13671875 5.5625 C14.14517097 6.0834449 14.14517097 6.0834449 15.17399597 6.61491394 C17.34738059 7.73905575 19.51747153 8.86939517 21.6875 10 C23.19596184 10.78197425 24.70458908 11.56362949 26.21337891 12.3449707 C34.50150146 16.64118938 42.77655337 20.9623666 51.02905273 25.32666016 C57.75033429 28.8795829 64.49904236 32.37885052 71.25 35.875 C82.57418771 41.73973555 93.88581823 47.62799019 105.18945312 53.53222656 C109.95885182 56.0229862 114.7294963 58.51135762 119.5 61 C121.41667247 61.99998888 123.33333914 62.99998887 125.25 64 C126.19875 64.495 127.1475 64.99 128.125 65.5 C159.75 82 159.75 82 162.62402344 83.49951172 C164.5439221 84.50118381 166.46384404 85.50281129 168.38378906 86.50439453 C173.12619636 88.97844944 177.86821884 91.45323573 182.609375 93.9296875 C184.48955665 94.91150943 186.36976507 95.8932801 188.25 96.875 C189.17828613 97.35976807 190.10657227 97.84453613 191.06298828 98.34399414 C196.41447261 101.13640978 201.77105373 103.9187735 207.1328125 106.69140625 C207.73629517 107.00364136 208.33977783 107.31587646 208.96154785 107.63757324 C211.89961878 109.15767223 214.83833297 110.67647877 217.77832031 112.19287109 C218.84920898 112.74668457 219.92009766 113.30049805 221.0234375 113.87109375 C221.96106934 114.35505615 222.89870117 114.83901855 223.86474609 115.33764648 C227.94172739 117.49931645 231.96610812 119.75894895 236 122 C236 201.2 236 280.4 236 362 C225.59755944 356.79877972 215.20937712 351.58329195 204.875 346.25 C204.20746704 345.90584045 203.53993408 345.56168091 202.85217285 345.20709229 C193.54779757 340.40591103 184.31406724 335.49612991 175.14599609 330.43847656 C167.99184411 326.50482181 160.7576407 322.73875376 153.5 319 C144.37870842 314.30088085 135.33479104 309.48926635 126.34765625 304.5390625 C119.12414612 300.57609177 111.82412276 296.77328259 104.5 293 C95.37872364 288.30084975 86.334792 283.48926688 77.34765625 278.5390625 C70.12413125 274.57608362 62.82386468 270.7738061 55.5 267 C46.91866413 262.57202581 38.36403819 258.10284157 29.875 253.5 C28.57079102 252.79810547 28.57079102 252.79810547 27.24023438 252.08203125 C15.68807347 245.77756815 5.29627305 239.64038263 0.80896759 226.6300106 C-1.03828944 218.3409732 -0.51497295 209.7292589 -0.45410156 201.28051758 C-0.45297201 199.08187887 -0.45360905 196.88323866 -0.45587158 194.68460083 C-0.45701543 188.74109333 -0.43355928 182.79791121 -0.40557575 176.85447907 C-0.3805072 170.63385322 -0.37821579 164.41321924 -0.37347412 158.19255066 C-0.36176528 147.09237091 -0.33290695 135.99232523 -0.29490325 124.89220657 C-0.26059807 114.81868869 -0.23564412 104.74519469 -0.21972656 94.67163086 C-0.21867567 94.0084208 -0.21762477 93.34521075 -0.21654204 92.66190342 C-0.2113215 89.33443271 -0.2062758 86.00696176 -0.20129442 82.67949069 C-0.1595264 55.11957781 -0.08920544 27.55979728 0 0 Z " fill="#000000" transform="translate(0,149)"/>
<path d="M0 0 C2.45259731 1.23531114 4.90824089 2.46437567 7.36450195 3.69238281 C15.29781776 7.66815215 23.18900389 11.71079373 31.02661133 15.87207031 C43.58169241 22.52838342 56.33043674 28.8039325 69.05395508 35.12988281 C96.33714063 48.69469025 96.33714063 48.69469025 108.77514648 55.31152344 C120.41769563 61.47771631 132.25766001 67.26493457 144.05395508 73.12988281 C159.16029938 80.64053992 174.23624049 88.1870334 189.13098145 96.11181641 C191.89881097 97.57716893 194.68244941 99.011099 197.46801758 100.44238281 C198.34973633 100.89742188 199.23145508 101.35246094 200.13989258 101.82128906 C201.90088662 102.7288783 203.66406665 103.63223374 205.42895508 104.53222656 C206.2874707 104.97695312 207.14598633 105.42167969 208.03051758 105.87988281 C208.78413574 106.26660156 209.53775391 106.65332031 210.31420898 107.05175781 C212.05395508 108.12988281 212.05395508 108.12988281 213.05395508 110.12988281 C201.16177854 116.0876456 189.268469 122.04314013 177.37377644 127.99587822 C171.84841596 130.7611485 166.32342343 133.52714833 160.79931641 136.29492188 C155.45094436 138.97461019 150.10154768 141.65224318 144.75148582 144.32855606 C142.72819892 145.34111103 140.70525918 146.35436006 138.68270302 147.36837387 C133.07378905 150.18010355 127.45819047 152.97752504 121.83188248 155.75429535 C119.92384612 156.69912598 118.01847871 157.64935972 116.11538315 158.60410309 C113.23433144 160.0480065 110.34491371 161.47374377 107.453125 162.89599609 C106.58048917 163.33802305 105.70785334 163.78005001 104.80877399 164.23547173 C103.99440467 164.63158716 103.18003534 165.0277026 102.34098816 165.43582153 C101.63131488 165.78835054 100.9216416 166.14087955 100.19046307 166.50409126 C95.10100854 167.99481241 90.70074339 165.10592451 86.32348633 162.72753906 C85.6688591 162.3786412 85.01423187 162.02974335 84.33976746 161.67027283 C82.17878609 160.51687103 80.02271921 159.35457584 77.86645508 158.19238281 C76.34012756 157.37594452 74.81342831 156.56020082 73.28637695 155.74511719 C70.11321555 154.0507058 66.94167727 152.35331176 63.77124023 150.65380859 C57.24357645 147.15754383 50.69673155 143.69767235 44.14974976 140.23776245 C40.61689065 138.37022136 37.08550332 136.4999012 33.55395508 134.62988281 C32.13729534 133.87986973 30.72062867 133.12986972 29.30395508 132.37988281 C26.47062174 130.87988281 23.63728841 129.37988281 20.80395508 127.87988281 C20.10276047 127.50866302 19.40156586 127.13744324 18.67912292 126.75497437 C17.2618938 126.0046748 15.84466765 125.25436962 14.42744446 124.50405884 C10.89440769 122.63359629 7.36132001 120.76323003 3.828125 118.89306641 C-2.64987171 115.46405847 -9.12742979 112.03423185 -15.60317993 108.60098267 C-19.27972495 106.65182352 -22.95658959 104.70326779 -26.63354492 102.75488281 C-27.34853149 102.37595886 -28.06351807 101.99703491 -28.8001709 101.60662842 C-37.58078816 96.95422674 -46.3762687 92.33275578 -55.19604492 87.75488281 C-63.27891492 83.55920001 -71.27870121 79.22903756 -79.25756836 74.83935547 C-87.53347979 70.30884324 -95.91232858 65.98685936 -104.30349731 61.67553711 C-115.27788893 56.0338324 -126.13878263 50.20084319 -136.93261719 44.22045898 C-138.91688781 43.1456758 -140.92194064 42.12729637 -142.94604492 41.12988281 C-142.94604492 40.46988281 -142.94604492 39.80988281 -142.94604492 39.12988281 C-142.06271484 38.66316162 -141.17938477 38.19644043 -140.26928711 37.71557617 C-136.07768982 35.50048819 -131.8867361 33.28418453 -127.69604492 31.06738281 C-126.92851898 30.66138855 -126.16099304 30.25539429 -125.37020874 29.83709717 C-114.98266215 24.3410279 -104.61092275 18.81688374 -94.25854492 13.25488281 C-85.63657668 8.6252955 -76.99687407 4.03281779 -68.32104492 -0.49511719 C-66.96233276 -1.20450439 -66.96233276 -1.20450439 -65.57617188 -1.92822266 C-63.03641326 -3.24936336 -60.49278359 -4.56248624 -57.94604492 -5.87011719 C-57.05022705 -6.3307959 -56.15440918 -6.79147461 -55.23144531 -7.26611328 C-54.35222412 -7.71293457 -53.47300293 -8.15975586 -52.56713867 -8.62011719 C-51.78266357 -9.01972656 -50.99818848 -9.41933594 -50.18994141 -9.83105469 C-32.46057254 -18.04084621 -15.71225879 -7.91551115 0 0 Z " fill="#000000" transform="translate(285.946044921875,13.8701171875)"/>
<path d="M0 0 C1.98533624 1.27606635 3.89997723 2.61628644 5.80761719 4.00585938 C9.99696301 6.8609592 14.60277406 8.97688178 19.125 11.25 C27.58416747 15.64602087 35.95493695 20.19308792 44.30712891 24.78808594 C52.5927808 29.32403744 60.98183088 33.65047043 69.38262939 37.96743774 C78.19755708 42.49983441 86.9337467 47.15403966 95.61328125 51.94140625 C103.79470004 56.43340046 112.08553995 60.70393681 120.3862915 64.9692688 C128.27302184 69.02428092 136.110684 73.15131651 143.875 77.4375 C152.66788662 82.29011562 161.56478101 86.91715642 170.5 91.5 C180.43697683 96.59692043 190.30698243 101.78508822 200.08837891 107.17675781 C210.29935445 112.79424616 220.64820786 118.14770182 231 123.5 C231 124.16 231 124.82 231 125.5 C197.49942129 142.34673446 197.49942129 142.34673446 183.30688477 149.02001953 C176.77529545 152.1146948 170.31995444 155.34715835 163.875 158.6171875 C162.0483577 159.54129506 160.2216974 160.46536704 158.39501953 161.3894043 C154.75487295 163.23148602 151.12178992 165.08668269 147.49169922 166.94848633 C145.8046047 167.8033763 144.11727752 168.65780734 142.4296875 169.51171875 C141.65359131 169.91425873 140.87749512 170.31679871 140.07788086 170.73153687 C133.22004334 174.17726778 133.22004334 174.17726778 129 173.5 C126.23707817 172.23465326 123.64749665 170.91211253 121 169.4375 C119.30292787 168.51797088 117.6049495 167.60011306 115.90625 166.68359375 C114.97167969 166.17683105 114.03710938 165.67006836 113.07421875 165.14794922 C107.87779788 162.36238371 102.63237089 159.67172632 97.39031982 156.97338867 C87.96329159 152.11909768 78.55457521 147.23168832 69.1796875 142.27734375 C62.30499932 138.6490361 55.40323077 135.0736446 48.5 131.5 C40.07745395 127.13967597 31.66763366 122.75755299 23.28125 118.328125 C15.19818998 114.06514129 7.07968649 109.8707989 -1.03564453 105.66967773 C-7.49461243 102.32393055 -13.94375938 98.96121613 -20.375 95.5625 C-28.39177383 91.32668688 -36.44364024 87.15982142 -44.5 83 C-53.27793821 78.4675987 -62.04429276 73.9154795 -70.77856445 69.29931641 C-82.14971253 63.29763372 -93.58045895 57.40891134 -105 51.5 C-103.68042518 47.54127555 -102.23466901 47.26354248 -98.5859375 45.34765625 C-97.44398926 44.74219971 -96.30204102 44.13674316 -95.12548828 43.51293945 C-93.87542336 42.86260487 -92.62525814 42.21246305 -91.375 41.5625 C-90.09445196 40.88779231 -88.81434512 40.21224665 -87.53466797 39.53588867 C-83.69642508 37.51110926 -79.84918082 35.50388839 -76 33.5 C-74.93587891 32.94505859 -73.87175781 32.39011719 -72.77539062 31.81835938 C-68.95374351 29.82609088 -65.13160434 27.83480786 -61.30615234 25.84985352 C-55.75079862 22.96070122 -50.23093573 20.01555023 -44.7421875 17.00170898 C-42.92636227 16.00730541 -41.10607274 15.02100719 -39.28125 14.04321289 C-34.43757464 11.44051806 -29.72507705 8.72568144 -25.0703125 5.796875 C-8.06339803 -4.57890309 -8.06339803 -4.57890309 0 0 Z " fill="#000000" transform="translate(119,72.5)"/>
</svg>
